<?xml version="1.0" standalone="no"?>
<!DOCTYPE svg PUBLIC "-//W3C//DTD SVG 1.0//EN" "http://www.w3.org/TR/2001/REC-SVG-20010904/DTD/svg10.dtd">
<svg xmlns="http://www.w3.org/2000/svg" xmlns:xlink="http://www.w3.org/1999/xlink" id="body_1" width="10" height="10">

<g transform="matrix(0.017035775 0 0 0.017035775 1.362862 -0)">
	<g>
        <path d="M298 169C 301.077 171.176 298.578 179.58301 298 186C 297.717 189.141 298.998 192.353 297 194L297 194L297 185C 298.22 180.55 298.09 174.75 298 169z" stroke="none" fill="#000000" fill-rule="nonzero" />
        <path d="M285 178C 286.162 177.837 286.779 178.221 287 179C 287.322 182.231 285.46 186.16699 285 190C 284.501 194.159 287.027 200.286 283 202C 284.66 195 283.56 185.22 285 178z" stroke="none" fill="#000000" fill-rule="nonzero" />
        <path d="M271 187C 272.701 186.632 272.887 187.78 273 189C 270.749 195.427 272.957 211.609 270 214C 269.67 204.34 271.77 197.11 271 187z" stroke="none" fill="#000000" fill-rule="nonzero" />
        <path d="M289 220C 293.794 220.352 286.864 222.995 287 225C 286.796 228.129 287.675 232.341 286 234C 286.132 235.314 286.151 241.235 285 238C 284.245 231.912 286.599 228.932 286 223C 287.89 222.89 286.69 219.69 289 220z" stroke="none" fill="#000000" fill-rule="nonzero" />
        <path d="M256 225C 255.283 227.616 252.737 228.404 252 231C 251.595 233.978 252.969 243.90201 251 242L251 242L251 229C 253 228 252.58 224.58 256 225z" stroke="none" fill="#000000" fill-rule="nonzero" />
        <path d="M212 236C 216.27 240.778 213.277 248.468 213 255C 212.392 269.333 213.456 285.77 213 301C 210.411 297.688 211.932 292.015 212 287C 212.2 272.03 211.85 251.86 212 236z" stroke="none" fill="#000000" fill-rule="nonzero" />
        <path d="M176 260C 177.786 283.564 177.286 314.188 177 334C 174.79 311.86 176.5 280.53 176 260z" stroke="none" fill="#000000" fill-rule="nonzero" />
        <path d="M217 267C 218.915 272.386 217.461 279.478 217 284C 215.2 280.5 215.53 270.56 217 267z" stroke="none" fill="#000000" fill-rule="nonzero" />
        <path d="M216 298C 218.235 307.163 216.402 330.324 217 345C 214.76 335.84 216.6 312.68 216 298z" stroke="none" fill="#000000" fill-rule="nonzero" />
        <path d="M212 302C 214.058 311.457 213.089 330.542 212 337C 210.29 327.62 210.39 311.4 212 302z" stroke="none" fill="#000000" fill-rule="nonzero" />
        <path d="M116 303C 117.662 309.163 117.332 322.119 117 327C 115.15 321.03 115.97 307.58 116 303z" stroke="none" fill="#000000" fill-rule="nonzero" />
        <path d="M94 333C 98.671 334.329 94.101 344.899 97 348C 92.89 346.11 95.993 337.01 94 333z" stroke="none" fill="#000000" fill-rule="nonzero" />
        <path d="M145 355C 146.163 354.838 146.779 355.221 147 356L147 356L147 376C 147 392.418 146.665 362.744 146 358C 145.96 357.68 144.29 356.3 145 355z" stroke="none" fill="#000000" fill-rule="nonzero" />
        <path d="M215 386C 216.163 385.838 216.779 386.221 217 387C 215.052 391.579 219.924 402.358 215 406L215 406L215 386z" stroke="none" fill="#000000" fill-rule="nonzero" />
        <path d="M325 389C 328.062 393.436 323.739 399.042 325 405C 323.251 409.58 324.255 395.443 324 392C 325.17 391.84 324.84 390.18 325 389z" stroke="none" fill="#000000" fill-rule="nonzero" />
        <path d="M275 423C 278.044 427.765 273.759 442.74 275 452C 271.72 446.65 275.63 432.26 275 423z" stroke="none" fill="#000000" fill-rule="nonzero" />
        <path d="M215 430C 218.085 447.423 213.756 466.086 215 485C 213.04 468.7 213.75 446.41998 215 430z" stroke="none" fill="#000000" fill-rule="nonzero" />
        <path d="M125 452C 125.973 452.027 125.776 453.224 126 454C 125.349 459.349 127.313 467.313 125 471C 125.44 462.58 123.06 457.4 125 452z" stroke="none" fill="#000000" fill-rule="nonzero" />
        <path d="M243 490C 246.104 489.162 242.743 522.689 243 500L243 500L243 490z" stroke="none" fill="#000000" fill-rule="nonzero" />
        <path d="M104 494C 105.463 496.968 105.727 510.811 106 518C 103.46 511.88 104.05 502.62 104 494z" stroke="none" fill="#000000" fill-rule="nonzero" />
        <path d="M272 511C 268.451 508.86 271.381 498.373 272 494L272 494L272 511z" stroke="none" fill="#000000" fill-rule="nonzero" />
        <path d="M214 507C 216.198 508.158 214.432 521.884 215 528C 212.8 526.84 214.57 513.12 214 507z" stroke="none" fill="#000000" fill-rule="nonzero" />
        <path d="M244 18C 245.47 24.864 245.575 33.092 246 41C 270.812 45.155 297.178 46.668 325 54C 332.921 56.086998 341.249 58.361 349 61C 363.226 65.844 377.046 66.103 380 81C 392.379 84.621 397.787 95.213 399 110C 400.139 113.861 407.655 111.345 408 116C 406.636 119.971 409.93 121.103 410 124C 410.136 129.603 404.182 137.111 399 140C 390.943 144.492 378.893 140.88 373 146C 360.085 251.9 350.837 371.01 339 483C 338.214 490.435 338.372 498.292 337 505C 336.584 507.033 334.734 508.826 334 511C 331.649 517.953 332.151 526.559 329 533C 325.344 540.473 317.739 549.123 312 553C 285.901 570.631 237.874 584.869 199 584C 173.245 583.424 144.132 577.484 121 568C 103.28 560.735 85.377 549.378 76 535C 71.445 528.017 69.666 516.812 65 507C 55.806 385.29 45.768997 265.84 34 143C 24.18 138.223 17.97 133.123 13 121C 9.975 113.623 8.05 110.249 11 103C 11.814 100.998 14.016 100.677 15 99C 16.794 95.943 17.846 91.365 20 89C 22.74 85.991 28.017 85.379 31 82C 34.519 78.015 35.691 70.677 39 68C 44.321 63.696 56.948997 60.086998 67 57C 94.391 48.588 134.70801 42.596 165 41C 167.856 28.038 162.887 14.812 177 12C 185.196 10.367 200.932 13.469 213 14C 225.39 14.544 237.52 12.236 244 18zM175 15C 174.39 15.057 173.816 15.149 174 16C 187.07 16.357 215.715 19.049 234 17C 216.06 15.193 191.72 14.729 175 15zM173 18C 171.818 18.485 170.733 19.066 170 20C 167.889 28.222 168.835 39.501 167 48C 195.229 47.453 214.729 45.018 238 51C 237.987 42.592 238.838 30.243 237 21C 217.02 17.079 193.17 19.687 173 18zM204 114C 218.258 113.925 233.141 114.474 246 113C 243.128 101.603 235.722 91.482 229 81C 222.203 70.4 215.158 59.619 208 50C 206.997 50.003 206.81 49.19 206 49C 204.52 69.212 201.96 93.595 204 114zM156 111C 170.841 113.7 182.58301 113.395 199 114C 199.114 91.288 202.82 68.672 200 50C 184.52 69.517 168.19 88.191 156 111zM251 112C 263.253 112.253 273.065 110.065 284 109C 265.868 84.465 238.533 63.801 212 51C 227.39 68.944 240.89 88.778 251 112zM127 99C 124.535 101.078 118.889 102.47 120 107C 131.134 107.532 140.437 109.897 151 111C 155.075 105.408 159.567 100.233 162 93C 168.546 87.701004 172.715 78.944 178 72C 183.564 64.688 191.26 58.864998 193 51C 170.78 65.895004 146.29001 82.738 127 99zM133 54C 137.226 50.711 133.026 52.993 132 53C 111.38 53.136 78.127 59.09 57 65C 49.117 67.205 40.287003 69.59 40 78C 68.945 67.945 99.53 59.53 133 54zM111 86C 103.318 90.117 94.732 93.598 89 100C 98.012 101.322 105.9 103.767 115 105C 130.978 90.788 150.44 76.775 168 65C 173.843 61.082 180.605 57.496 184 52C 159.53 63.304 133.45999 73.962 111 86zM292 108C 300.826 105.159 312.693 105.36 320 101C 292.708 80.626 259.922 65.744 226 52C 224.823 52.157 223.161 51.828 223 53C 249.73 67.607 271.18 87.488 292 108zM343 74C 351.67 77.273 359.385 81.921 368 83C 370.189 71.708 356.345 71.395996 349 69C 321.802 60.127 286.502 52.075 257 53C 286.98 58.618 317.38 64.328 343 74zM169 54C 141.048 61.806 114.315 71.985 91 82C 82.244 85.761 72.873 88.356 67 94C 72.655 93.723 77.908 98.833 84 98C 86.8 97.617 90.037 94.354004 94 92C 118.315 77.556 147.236 65.455 171 54L171 54L169 54zM336 61C 346.176 63.416 355.657 69.093 365 69C 347.492 62.172 326.181 53.822 304 55C 315.03 56.568 325.56 58.521 336 61zM254 56C 277.04102 63.035 306.646 72.269 330 82C 342.698 87.291 356.662 100.412 364 86C 332.2 72.376 287.93 59.817 254 56zM74 79C 66.453 81.731 58.088 84.024 53 90C 57.195 89.472 58.586 91.747 62 92C 89.306 78.306 118.736 66.736 150 57C 121.89 61.574 97.136 70.628 74 79zM121 59C 97.158005 65.158 70.682 68.681 51 79C 46.336 78.336 44.576 80.576 41 81C 45.96 93.236 55.903 82.493 65 79C 83.832 71.770996 107.719 65.302 123 59L123 59L121 59zM326 101C 333.381 99.714 339.006 96.673 347 96C 342.242 89.55 333.132 88.242 326 85C 318.317 81.508 310.73 79.013 303 76C 287.485 69.954 272.108 62.214 256 61C 281.73 71.939 305.68 84.648 326 101zM364 93C 373.941 94.769 370.634 78.937 376 82C 373.742 80.258 375.346 74.654 372 74C 374.06 81.558 369.2 89.506 364 93zM69 104C 67.047 102.286 63.404 102.263 61 101C 59.881 104.214 58.263 106.93 58 111C 60.386 111.964 64.406 114.3 67 112C 66.669 108.34 68.11 106.44 69 104zM77 117C 78.867 114.867 78.357 110.357 81 109C 81.57 112.92 77.531 115.237 80 118C 112.063995 125.603 146.262 131.071 183 134C 129.512 133.815 80.87 120.131 37 107C 30.783 103.042 28.091 93.108 29 85C 25.199 89.291 21.162 88.677 20 94C 16.659 109.308 33.897 110.747 46 115C 55.850998 118.461 65.894 121.342 71 122C 73.541 123.875 71.459 124.125 74 126C 77.769 126.769 78.78 124.78 82 125C 131.203 139.398 202.93 144.703 253 139C 257.453 144.135 271.498 138.088 276 137C 291.212 133.324 312.247 130.883 332 126C 340.787 123.828 349.714 121.4 358 119C 376.893 113.528 395.764 110.53 390 90C 387.207 89.388 381.863 82.028 381 86C 384.113 98.443 380.339 105.57 372 110C 360.171 116.284 338.353 119.166 316 124C 295.579 128.416 274.05 132.867 255 134C 231.699 135.386 206.517 138.213 184 134C 218.87799 134.502 246.20801 133.583 277 130C 277.347 127.241 274.129 122.978 277 121C 277.042 124.292 278.688 125.979004 278 130C 281.671 129.337 285.603 128.936 289 128C 288.592 125.996 286.523 120.583 289 119C 288.939 122.727 290.009 125.325 291 128C 298.991 125.201 305.296 126.908 312 123C 311.159 120.508 310.691 117.643 311 114C 306.551 113.217 304.998 115.332 301 115C 300.381 117.714 302.27 122.936 300 124C 299.802 120.531 300.354 116.313 297 116C 226.389 129.523 131.6 123.102 70 104C 66.188 111.96 67.447 116.3 77 117zM35 102C 39.047 102.347 40.727 93.206 37 92C 37.144 96 32.583 98.853 35 102zM38 104C 39.987 104.013 39.271 106.729004 42 106C 42.75 102.75 43.811 99.811 45 97C 43.013 96.987 43.729 94.270996 41 95C 40.675 98.675 38.533 100.53 38 104zM43 107C 46.059 106.275 45.941 108.725 49 108C 48.755 103.755 51.616 102.616 51 98C 49.258 98.075 47.89 97.777 47 97C 45.623 100.29 44.027 103.36 43 107zM372 108C 371.396 104.270996 372.427 98.907 369 98C 369.6 101.73 368.57 107.09 372 108zM50 109C 51.289 110.378 54.344 109.99 57 110C 57.084 106.417 58.555 104.222 59 101C 57.131 100.202 55.336998 99.329 53 99C 51.502 101.84 50.915 105.58 50 109zM366 110C 369.018 109.503 367.446 100.253 365 99C 362 100 361.69 110.229996 366 110zM360 112C 362.256 109.677 360.917 102.466 359 101C 355.78 102.22 356.18 111.74 360 112zM351 114L355 114C 356.51 111.25 355.324 104.09 352 103C 347.99 104.85 351.2 110.05 351 114zM343 116C 345.465 116.132 347.818 116.151 349 115C 348.8 111.201 348.115 107.885 347 105C 339.63 104.78 343.4 110.39 343 116zM334 108C 333.278 109.452 333.743 116.4 335 119C 337.275 118.276 340.108 118.108 342 117C 342.332 113.001 340.218 111.449 341 107C 337.53 106.2 337.16 108.49 334 108zM324 111C 324.271 114.395 323.226 119.107 325 121C 328.664 121.331 330.557 119.89 333 119C 333.238 114.761 332.081 111.919 331 109C 328.72 109.72 325.89 109.89 324 111zM313 113C 311.943 117.071 313.281 117.737 313 123C 317.238 123.239 320.081 122.081 323 121C 323.76 113.58 320.92 108.82 313 113zM20 126C 20.473 122.475 24.732 113.187 21 112C 21.179 116.55 17.436 122.39 20 126zM390 126C 395.362 125.832 392.128 114.028 390 112C 388.07 116.02 390.94 120.06 390 126zM22 130C 27.58 129.033 26.926 117.219 27 114C 25.722 113.945 25.615 112.718 24 113C 23.821 119.15 21.246 122.91 22 130zM396 118C 400.402 119.427 402.274 118.398 404 115C 400.84 112.34 396.96 115.37 396 118zM29 133C 31.999 129.767 33.429 120.414 32 116L32 116L29 116C 29.024 121.32 23.380001 131.33 29 133zM388 131C 387.628 125.372 389.05 117.95 385 116C 385.3 121.7 384.69 128.31 388 131zM37 136C 39.56 131.56 39.624 124.624 41 119C 38.652 118.681 37.247 117.42 34 118C 34.772 124.75 27.695 135.28 37 136zM383 135C 384.463 130.553 384.036 120.196 380 118C 380.61 124.06 379.94 131.39 383 135zM39 136C 41.162 136.838 42.411 138.589 46 138C 46.2 131.866 49.063 128.396 49 122C 46.838 121.162 45.589 119.411 42 120C 41.517 125.85 40.317 130.98 39 136zM379 137C 378.951 130.715 378.04 125.293 377 120L377 120L374 120C 376.22 125.12 373.38 135.29 379 137zM394 122C 397.155 123.178 395.771 128.896 400 129C 400.939 125.046 400.78 123.202 399 120C 396.52 119.85 394.15 119.81 394 122zM372 140C 374.669 136.654 373.934 123.020004 369 121C 367.64 125.96 368.5 136.64 372 140zM47 139C 49.675 139.992 52.273 141.061 56 141C 56.148 135.481 57.46 131.126 59 127C 59.771 133.437 56.498 135.832 57 142C 60.222 142.445 62.417 143.916 66 144C 66.443 142.11 64.64 137.973 68 139C 66.632 140.278 66.632 143.722 68 145C 85.581 150.086 105.179 153.154 124 157C 125.928 155.262 124.389 150.056 128 150C 137.434 149.233 142.566 152.767 152 152L152 152L152 157C 165.048 163.627 182.285 163.396 199 164C 229.559 165.105 263.898 161.444 291 157C 289.354 156.864 289.354 150.136 291 150C 291.319 152.348 292.58 153.753 292 157C 297.118 157.785 299.264 155.598 304 156C 302.974 150.693 301.778 145.555 302 139C 281.12 140.936 263.76 144.513 245 146C 234.755 146.812 220.603 143.245 214 147C 201.702 143.861 186.463 147.063 173 146C 146.954 143.943 122.789 140.611 99 135C 91.25 133.172 81.9 132.66 75 130C 74.197 129.69 72.967 127.25 72 127C 68.496 126.092 63.906998 127.107 60 126C 57.042 125.162 55.243 122.813 52 123L52 123L50 123C 50.49 129.82 47.233 132.9 47 139zM364 142C 364.15 140.15 367.387 141.386 368 140C 367.262 134.404 366.131 129.202 366 123C 357.18 122.08 362.13 138.36 364 142zM356 144C 363.907 143.341 358.197 131.725 359 126L359 126L355 126C 353.38 130.3 355.08 139 356 144zM346 129C 348.528 133.472 344.82 144.18 350 146C 356.142 144.199 351.658 133.308 352 128C 349.54 127.87 347.18 127.85 346 129zM338 130C 337.374 133.853 337.941 142.756 339 148C 342.589 148.589 343.838 146.838 346 146C 344.15 139.07 348.26 127.2 338 130zM327 134C 328.721 138.279 327.434 145.567 329 150C 332.769 150.769 333.78 148.78 337 149C 335.756 143.911 336.559 136.774 335 132C 331.34 131.67 329.44 133.11 327 134zM316 137C 317.199 141.468 316.296 148.037 318 152C 319.329 153.035 324.688 152.037 327 151C 326.728 144.939 326.363 138.97 325 134C 320.71 133.71 318.39 135.39 316 137zM384 141C 389.312 143.193 393.088 134.712 389 134C 388.87 137.87 384.94 137.94 384 141zM303 139C 304.595 144.405 302.571 153.429 307 156C 308.511 153.511 313.748 154.748 316 153C 316.321 146.679 313.432 143.568 314 137C 309.63 136.97 306.2 137.87 303 139zM43 188C 42.936 187.714 44.106 194.354 46 191C 42.862 176.396 42.862 160.701 42 146C 41.789 144.878 40.89 144.443 40 144C 42.617 157.02 40.397 176.37 43 188zM48 146C 45.436 156.823 52.439 178.479 48 185C 48.059 177.252 47.522 169.654 47 163C 46.588 157.746 47.782 148.25 43 145C 44.181 156.097 44.664 169.814 46 180C 46.438 183.336 45.45 188.537 49 190C 48.891 187.512 47.126 186.904 49 185C 51.2 186.467 48.615 192.719 54 191C 53.751 184.945 51.52 176.446 54 169C 54.902 181.395 52.83 191.963 60 199C 59.725 191.36 58.223 182.02 59 175C 60.815 183.689 60.512 189.078 61 198C 62.419 199.675 65.213 194.27 70 196C 74.901 199.432 79.347 203.32 79 212C 82.875 212.542 79.865 206.198 83 206C 91.304 196.166 103.237 208.987 105 219C 108.476 238.74 103.505 273.263 109 287C 109.254 276.438 107.53 266.153 107 254C 106.299 237.946 103.165 210.177 117 209C 138.754 207.149 132.406 242.514 134 262C 138.363 315.328 137.858 374.5 140 422C 142.784 421.55 139.216 427.45 142 427C 139.431 372.864 139.579 302.78 137 246C 136.371 232.139 134.501 217.783 145 215C 164.02 209.95801 166.53 227.974 167 242C 168.038 272.969 168.334 306.174 169 340C 169.605 370.766 170.351 402.964 171 429C 171.176 436.065 168.42 442.281 172 448C 170.469 388.275 171.365 305.52002 170 245C 169.672 230.45801 171.509 217.072 186 217C 197.932 216.94 201.949 226.59799 203 236C 205.231 255.952 203 279.73 203 303C 203 395.443 203.221 485.97 202 564C 205.736 563.244 203.913 558.219 204 556C 204.988 530.764 204.264 498.979 205 477C 207.148 412.895 206 335.2 206 276C 206 251.54199 201.45801 213.30899 227 217C 243.861 219.437 239.933 250.465 239 271C 236.147 333.80798 235.733 408.75 234 464L234 464L234 468L234 473L234 483C 236.27 481.937 234.381 476.714 235 474L235 474L235 464C 238.271 404.325 239.229 310.05 242 247C 242.304 240.101 241.064 234.288 242 229C 243.76 219.05 254.069 213.703 265 215C 276.178 220.949 271.802 238.83301 271 257C 268.82 306.404 267.016 353.621 265 398C 264.6 406.821 262.128 414.94 265 423C 266.846 377.272 270.806 321.91998 273 272C 274.029 248.578 270.944 220.15399 284 211C 282.359 211.164 282.359 204.836 284 205C 285.867 206.778 283.188 207.542 284 211C 287.83 208.83 295.243 210.243 297 206C 297.289 211.254 302.278 214.709 303 220C 303.656 224.81 301.307 231.024 301 237C 298.707 281.698 294.148 329.581 294 370C 296.689 334.052 300.261 284.453 303 246C 303.834 234.295 303.227 219.493 307 212C 309.163 207.705 315.979 205.594 318 201C 317.251 186.193 320.927 170.671 320 159C 317.712 160.045 313.968 159.635 312 161C 309.868 174 310.626 198.196 306 212C 306.664 195.327 310.818 176.82199 309 161C 304.791 162.458 298.853 162.186 299 168C 299.351 161.152 292.474 163.54 288 165C 285.067 166.4 288.933 174.6 286 176C 282.777 173.321 289.061 166.505 284 165C 249.672 170.719 206.901 170.893 168 169C 165.136 169.136 168.864 175.864 166 176C 161.532 173.626 157.762 176.768 152 176C 147.413 174.587 146.119 169.881 139 171C 136.769 167.563 138.301 176.207 134 174C 129.271 174.395 125.654 173.679 122 173C 120.517 171.816 120.444 169.223 119 168C 117.593 165.137 122.103 162.54199 118 163C 101.13 158.87 82.601 156.399 67 151C 64.889 154.815 68.51 160.072 66 163C 63.797 157.869 66.151 148.182 58 149C 56.803 159.375 61.3 167.741 58 174C 58.654 169.95801 57.367 165.058 57 161C 56.572 156.266 59.841 148.371 53 148C 50.634 151.256 55.634 164.574 52 168C 50.402 157.72 53.96 152.57 48 146zM357 190C 359.476 190.403 359.749 186.301 360 185C 362.119 174.038 360.354 159.668 363 151C 362.776 150.224 362.973 149.027 362 149C 358.59 160.92 359.06 176.73 357 190zM352 191C 354.793 188.953 355.462 183.883 356 180C 357.199 171.344 356.527 160.448 358 152C 357.779 151.221 357.162 150.837 356 151C 355.26 164.92 354.23 178.56 352 191zM348 201C 351.646 186.979 352.081 169.748 353 153C 354.052 152.945 353.787 151.718 352 152C 350.18 167.18 346.67 186 348 201zM342 197C 345.837 197.068 345.551 190.883 346 188C 347.825 176.296 346.901 162.524 349 153L349 153L346 153C 343.84 166.84 342.5 181.5 342 197zM335 199C 338.314 199.297 339.413 195.084 340 193C 342.99 182.377 340.316 165.427 343 154L343 154L340 154C 336.96 167.62 337.04 184.37 335 199zM127 162C 132.527 163.139 138.718 163.616 144 165C 145.583 153.072 134.79199 159.087 127 156L127 156L127 162zM333 156C 332.761 157.427 331.354 157.687 331 159C 328.938 205.68399 323.081 250.33499 323 297C 326.364 269.729 325.909 241.228 329 214C 329.562 209.046 332.309 203.947 333 199C 334.51 188.202 335.131 175.841 336 166C 336.246 163.22 338.269 157.871 335 156L335 156L333 156zM323 158C 319.869 171.339 320.701 190.052 319 202C 321.239 203.094 324.011 203.656 326 205C 327.119 189.119 327.841 172.841 330 158L330 158L323 158zM44 231C 50.333 309.266 57.015 387.43 64 469C 65.131 482.207 65.323 496.048 69 509C 66.583 459.16602 61.623 404.49 57 351C 52.385002 297.603 47.211998 243.4 43 191C 41.572998 190.761 41.313 189.354 40 189C 41.166 201.87 42.838 216.64 44 231zM347 348C 341.623 401.337 336.623 454.91 333 507C 344.222 402.89 355.949 293.95 364 190C 357.67 241.69 352.37 294.75 347 348zM65 409C 67.231 409.147 63.702 411.52 65 414C 66.464 416.32 68.169 412.047 68 416C 67.988 417.321 66.248 416.914 66 418C 70.251 417.809 67.137 424.268 67 426C 68.22 426.113 69.368 426.299 69 428C 67.881 432.715 69.298 434.106 68 439C 72.528 442.646 68.852 460.17902 72 465C 70.407 465.087 70.119 465.334 70 467C 69.53 473.606 72.165 483.502 74 489C 71.066 490.98 72.449 496.081 75 498C 72.054 500.413 75.956 505.719 76 511C 76.028 514.427 72.163 518.67 76 521C 76.17 519.504 75.643 517.31 77 517C 76.093 523.241 80.221 524.445 83 527C 77.161 459.16 72.12 378.1 67 316C 64.41 284.577 61.184 251.157 59 220C 58.332 210.469 60.07 197.315 50 193C 53.07 197.994 47.509 198.741 47 203C 47.111 206.542 50.306 200.875 50 204C 48.215 205.896 47.205 209.525 50 206C 48.404 214.841 47.508 228.247 51 234C 51.609 231.609 49.745 226.745 52 226L52 226L52 237C 48.943 234.787 49.546 243.712 52 244C 52.547 242.547 50.832 238.832 53 239C 53.583 247.184 48.206 250.03 53 257C 53.157 255.823 52.828 254.162 54 254C 55.261 260.013 48.922 264.171 54 268C 54.547 266.547 52.832 262.832 55 263C 54.409 267.257 55.719 269.614 56 273C 53.818 273.637 52.818 270.166 53 274C 53.111 277.542 56.306 271.875 56 275C 55.405 277.072 57.236 281.569 55 282C 55.299 280.375 53.65 279.303 53 281C 55.196 288.065 54.762 291.77 55 301C 56.44 303.213 57.44 299.741 58 302C 58.14 304.874 55.221 309.798 58 312C 58.17 310.504 57.643 308.31 59 308C 57.939 312.685 56.293 330.872 60 323C 58.335 329.76 56.751 332.379 61 338C 60.174 340.513 57.819 345.182 61 350C 61.88 346.463 58.431 344.848 62 344L62 344L62 354C 60.997 354.003 60.81 353.19 60 353C 61.503 357.106 59.704 371.242 64 372C 63.829 374.59 64.86 379.953 62 377C 66.323 381.011 65.048 390.618 66 398C 62.34 394.909 64.253 404.395 66 405C 66.575 403.242 64.792 399.125 67 399C 66.901 403.46 67.81 410.03 65 409zM326 510C 331.517 505.022 327.837 496.267 328 489C 328.215 479.432 330.874 469.142 332 459C 335.183 430.332 336.333 404.475 339 378C 341.078 379.119 341.119 379.078 340 377C 340.592 357.565 343.696 340.03 344 323C 348.66 316.959 348.906 307.182 349 299C 349.136 287.119 348.952 277.605 350 267C 350.698 259.929 351.153 251.384 354 247C 351.142 237.444 354.051 231.688 354 222C 356.251 221.605 353.851 215.761 357 219C 354.714 207.904 358.702 201.437 357 193C 345.383 201.621 348.266 220.799 347 236C 339.166 330.074 329.483 429.81 321 523C 326.74 522.74 326.2 516.2 326 510zM85 471C 84.501 468.797 83.391 476.512 86 478C 86.17 476.504 85.643 474.31 87 474C 88.095 480.265 83.369 480.272 87 484C 84.024 483.635 84.911 490.634 88 490C 86.61 497.396 91.648 505.001 87 512C 88.444 514.382 88.517 514.454 90 515C 88.236 516.736 88.714 524.523 90 530C 90.575 528.242 88.792 524.125 91 524L91 524L91 534C 93.284 534.449 96.052 539.525 98 537C 96.606 515.062 94.065 492.899 93 470C 89.532 395.461 82.726 317.09 79 237C 78.191 219.621 80.162 201.698 68 198C 66.464 200.797 68.123 206.79 63 206C 66.981 218.238 67.068 229.753 65 236C 65.309 238.358 68.473 237.86 68 241C 68.646 269.864 73.645996 295.846 72 317C 73.22 317.113 74.368 317.299 74 319C 73.288 330.379 76.712 337.621 76 349C 72.398 350.139 75.664 358.096 77 352C 77.948 376.753 80.520996 402.002 81 426C 83.385 428.939 83.895 435.883 84 442C 84.08 446.635 81.887 452.524 82 453C 82.705 455.979 84.825 450.811 85 455C 85.122 457.908 83.306 457.88 83 460C 83.007 459.951 85.263 460.267 85 462C 84.804 463.294 83.389 462.936 83 464C 87.463 461.95 86.578 470.32 85 471zM314 531C 314.221 531.779 314.838 532.163 316 532C 320.126 497.518 320.626 462.68 324 428C 331.14 354.617 338.154 280.2 342 206C 340.786 207.786 341.817 211.817 340 213C 338.137 206.432 343.319 202.832 341 199C 329.701 204.58 331.13 216.133 330 234C 323.664 334.16998 312.926 438.68 307 536C 319.718 531.718 311.069 506.069 317 495C 316.84 507.84 315.68 519.68 314 531zM91 210C 88.919 212.19 87.768 209.123 86 211C 87.207 215.207 84.385 215.385 84 218C 88.294 218.556 81.102 226.755 86 231C 84.677 228.494 90.656 228.572 87 227C 87.242 228.738 87.342 213.808 89 213L89 213L89 232C 85.508 229.238 87.981 239.125 85 240C 89.708 238.937 82.979004 243.75 88 243C 90.889 242.556 87.111 235.444 90 235C 90.271 238.396 89.226 243.107 91 245C 89.573 245.39 89.313 246.2 88 245C 88.943 250.39 85.884 259.783 90 262C 91.218 258.37 88 254.105 90 253C 92.289 254.711 90.367 260.633 91 264C 88.494 263.828 88.572 266.239 87 267C 92.7 268.89 85.488 283.952 90 282C 91.236 285.236 86.764 282.764 88 286C 91.924 289.366 89.259 298.603 90 301C 92.725 300.162 89.625 314.958 91 316C 91.895 312.611 93.816 324.733 90 323C 94.671 332.406 92.99 345.599 92 356C 92.776 356.224 93.973 356.027 94 357C 92.424 370.217 99.318 387.66602 94 395C 97.353 395.053 99.064 406.044 95 407C 98.552 409.906 94.67 412.066 96 414C 99.003 414.299 95.343 426.774 100 430C 100.157 428.823 99.828 427.161 101 427L101 427L101 432C 97.994 428.979 99.826 435.901 97 436C 102.383 436.95 95.716 449.95 101 451C 101.547 449.547 99.832 445.831 102 446C 101.868 448.465 101.849 450.818 103 452C 99.941 452.046 100.458 453.609 98 456C 103.305 454.797 97.928 459.037 98 460C 98.004 460.052 99.854 460.324 100 461C 100.256 462.186 98.731 464.01 99 466C 99.073 466.538 100.756 467.369 101 469C 101.98 475.551 102.57 490.328 102 493C 101.87 493.609 99.939 492.699 100 494C 100.007 494.146 101.9 494.173 102 495C 103.717 509.181 103.422 525.478 104 541C 106.849 539.797 117.598 550.715 116 544C 115.776 544.775 115.973 545.973 115 546C 113.849 544.818 113.868 542.465 114 540C 115.376 539.957 116.196 540.471 117 541C 116.347 537.286 116.201 532.472 114 533C 115.129 531.796 116.854004 531.188 116 528C 110.118 525.219 120.634 516.446 114 513C 113.843 514.177 114.172 515.839 113 516C 114.426 507.41 111.957 498.189 113 491C 112.701 492.625 114.35 493.697 115 492C 112.875 489.426 114.576 484.91 112 490C 113.702 480.062 110.388 472.962 111 468C 111.06 467.514 113.037 468.198 113 467C 113.004 467.131 111.131 466.496 111 466C 110.617 464.552 112.22 462.922 112 460C 111.853 458.047 109.699 452.045 110 446C 111.003 445.997 111.19 446.81 112 447C 108.879 440.611 110.023 430.502 110 424C 110.157 425.177 109.828 426.839 111 427C 110.037 416.453 111.657 404.122 109 397C 109.227 397.608 108.612 399.107 108 399C 107.094 393.714 110.909 387.695 107 388C 111.743 376.83398 103.595 368.92902 107 359C 106.701 360.625 108.35 361.697 109 360C 103.732 353.109 106.643 343.246 104 333C 105.376 332.957 106.196 333.471 107 334C 106.277 330.944 108.022 330.355 108 328C 102.493 324.309 109.823 313.941 104 311C 105.464 310.131 107.169 309.503 107 307C 99.098 303.94 104.355 293.657 104 287C 104.002 287.035 102.14 286.591 102 286C 101.086 282.151 102.708 276.796 102 273C 104.052 274.146 106.767 271.43 104 271C 101.685 271.401 101.845 266.702 101 262C 102.257 262.219 103.044 263.557 103 261C 102.761 259.125 101.354 261.567 101 260C 102.966 251.539 103.455 240.635 100 231C 103.944 231.611 101.176 225.51 102 223C 98.637 222.616 96.395 216.449 100 215C 98.853 213.386 96.074 211.833 98 210C 96.354 208.24 88.626 203.266 89 206C 92.008 204.99 90.772 208.23 91 210zM301 320C 301.001 320.025 302.861 321.376 303 322C 303.864 325.891 302.29 332.409 303 335C 296.955 333.299 305.309 343.309 301 348C 300.761 346.914 299.354 345.599 299 347C 299.964 350.609 302.734 357.792 300 366C 299.796 364.109 300.675 356.12 299 359C 300.41 362.822 296.388 366.281 299 368C 298.997 367.444 299.81 366.865 300 368C 299.954 378.333 299.046 381.667 299 392C 297.997 392.003 297.81 391.19 297 391C 298.801 395.532 297.71 402.957 298 409C 296.842 406.563 293.29 410.115 296 411C 296.239 409.466 297.646 410.854 298 412C 295.745 412.745 297.609 417.609 297 420C 294.818 420.638 293.818 417.166 294 421C 293.143 425.636 295.574 422.048 296 424C 295.684 431.107 296.627 443.636 293 445C 294.119 447.394 295.466 463.422 292 458C 292.998 462.488 294.723 474.136 291 477C 293.727 477.206 292.874 487.174 290 488C 293.99 500.796 287.067 518.408 289 533C 287.743 532.78 286.956 531.442 287 534C 288.684 538.15 288.142 538.667 288 545C 293.048 544.715 296.67 543.003 301 542C 300.657 529.302 302.197 527.58 300 520C 300.395 519.748 301.951 521.121 302 521C 303.88 516.394 303.882 499.795 302 497C 302.091 495.424 304.551 496.217 304 494C 302.871 492.796 301.146 492.188 302 489C 303.003 488.997 303.19 489.81 304 490C 302.957 484.85 301.49 481.103 304 476C 304.547 477.453 302.831 481.169 305 481C 306.739 476.046 306.743 468.103 303 468C 309.467 462.346 306.77 448.743 306 443C 305.528 439.48 306.645 428.046 309 429C 306.898 426.08 306.518 418.111 308 412C 308.275 410.865 309.933 410.97 310 410C 310.415 404.037 307.761 399.733 309 395C 309.034 394.868 310.98 395.126 311 395C 311.943 388.772 310.254 388.265 310 384C 314.021 380.619 309.178 373.58 313 370C 312.541 367.618 309.801 358.568 314 358C 309.266 350.191 319.504 341.025 315 331C 315.003 331.556 314.19 332.135 314 331C 314.387 316.229 317.582 313.736 316 299C 317.576 298.909 316.783 296.449 319 297C 318.695 290.695 319.158 285.158 320 280C 317.849 279.151 317.682 276.318 318 273C 319.44 274.119 320.44 274.078 321 272C 314.964 271.757 323.586 267.733 320 267C 318.953 267.608 316.83 250.749 322 251C 319.216 248.119 319.68 243.85 323 242C 317.63 237.454 323.74 225.373 322 217C 327.09 213.736 320.668 207.582 322 205C 306.197 210.897 310.653 231.189 308 250C 307.989 248.534 308.378 241.817 307 245C 306.227 251.132 310.049 257.918 307 263C 306.405 260.928 308.236 256.431 306 256C 302.226 264.818 309.9 267.514 306 278C 305.729 275.859 306.774 267.332 305 270C 305.938 276.209 302.155 280.529 307 280C 303.677 282.01 309.434 293.101 303 292C 301.951 304.276 306.317 310.389 303 321C 304.2 310.54 300.88 314.13 301 320zM270 396C 268.979 402.252 271.646 399.023 273 402C 269.515 448.036 268.056 502.45 265 552C 273.299 552.966 266.18 538.513 270 535L270 535L270 551L278 551C 279.055 549.961 280.065 543.859 278 543C 277.453 544.453 279.169 548.169 277 548C 275.448 539.89 283.328 529.373 278 527C 281.236 523.264 275.625 520.34 279 515C 278.563 516.663 279.139 522.23 280 521C 282.736 517.089 278.603 504.062 279 498L279 498L282 498L282 493C 279.006 494.071 280.209 486.559 280 482C 281.377 481.957 282.196 482.471 283 483C 280.934 475.568 282.82 472.474 281 468C 282.427 468.39 282.687 469.2 284 468C 282.848 448.101 286.554 433.453 287 415C 285.823 414.844 284.161 415.172 284 414C 286.05 409.592 284.445 409.709 288 410C 285.154 403.478 288.184 397.89 286 391C 285.604 388.604 290.555 391.555 289 388C 285.938 386.173 288.592 377.312 288 372C 288.171 373.496 287.643 375.69 289 376C 290.771 365.662 291.761 353.522 289 344C 291.747 346.453 291.591 339.94 292 337C 290.878 336.138 288.622 329.613 291 324C 291.171 325.496 290.643 327.69 292 328C 293.89 322.624 292.013 318.537 291 317C 297.835 310.518 291.609 290.208 294 282C 294.156 283.177 293.828 284.838 295 285C 298.522 279.334 292.533 273.814 295 268C 295.156 269.177 294.828 270.838 296 271C 297.916 268.583 296.631 262.964 297 259C 292.437 257.77 297.093 265.76 294 266C 292.834 253.759 295.594 254.487 298 248C 298.306 244.875 295.111 250.542 295 247C 298.326 243.66 293.012 231.678 298 230C 297.062 230.845 295.864 236.375 298 237C 300.229 230.174 297.396 225.221 298 221C 297.844 222.177 298.172 223.838 297 224C 296.003 219.669 298.117 218.45 299 216C 296.052 212.501 296.092 213.416 294 211C 291.113 213.113 287.116 214.116 285 217C 287.494 217.712 289.109 212.599 291 216C 274.807 222.473 283.693 254.02701 279 272C 278.987 270.469 276.271 268.713 277 272C 277.294 274.084 279.706 270.516 280 274C 276.649 277.316 282.628 289.961 276 290C 275.527 294.118 278.691 289.038 279 293C 277.633 297.299 278.938 304.271 277 308C 273.628 305.182 279.289 299.546 276 297C 275.163 306.172 272.743 319.064 275 328C 275.171 326.504 274.643 324.31 276 324C 277.556 334.981 274.915 350.18 274 362C 272.613 361.387 273.85 358.15 272 358C 270.979 364.252 273.646 361.023 275 364C 273.633 368.299 274.938 375.271 273 379C 271.349 378.984 272.44 376.227 271 376C 269.979 382.252 272.646 379.023 274 382C 273.112 387.779 273.71 395.043 272 400C 270.61 399.39 271.85 396.15 270 396zM133 333C 132.425 334.758 134.208 338.875 132 339C 132.638 335.305 130.705 329.038 133 327C 133.17 328.496 132.643 330.69 134 331C 133.484 326.006 135.747 310.05 132 305C 131.391 307.391 133.255 312.255 131 313C 131.46 307.424 129.671 284.027 133 296C 132.057 290.61 135.116 281.217 131 279C 130.405 281.072 132.236 285.569 130 286C 131.704 283.97 127.355 277.536 131 275C 130.449 275.384 131.918 277.35 132 277C 133.47 270.748 131.888 268.633 130 273C 130.595 270.928 128.764 266.431 131 266C 131.157 267.177 130.828 268.838 132 269C 131.093 263.907 134.062 254.938 130 253C 129.391 255.391 131.255 260.255 129 261C 130.38 249.867 131.556 236.09601 131 226C 126.09 225.756 131.347 235.68 128 237C 128.903 229.795 126.467 222.761 128 218C 124.242 216.91 124.632 215.473 124 213C 121.225 214.263 111.301 213.583 114 217C 115.091 214.62 118.909 214.62 120 217C 113.062 214.412 114.398 224.464 112 218C 111.184 222.54199 109.756 231.72299 112 236C 112.095 234.429 111.866 232.533 114 233C 114.017 242.596 114.379 248.998 115 256C 113.536 258.32 111.831 254.046 112 258C 112.157 259.177 111.828 260.838 113 261C 112.271 259.365 114.987 256.65 115 259C 114.904 271.56 116.501 282.603 116 293C 113.573 292.427 116.469 286.531 113 287C 112.229 291.367 115.702 294.798 113 298C 116.555 299.555 113.604 294.604 116 295C 118.449 297.292 116.332 304.081 114 299C 113.218 307.444 114.59 316.187 115 325C 115.382 333.213 113.073 342.615 117 349C 118.109 342.616 114.985 331.865 118 330C 117.966 337.7 117.699 345.634 119 352C 117.536 354.32 115.831 350.047 116 354C 121.747 354.925 117.346 371.053 120 378C 118.536 380.32 116.831 376.047 117 380C 123.208 379.712 118.055 396.95898 121 403C 118.818 403.638 117.818 400.166 118 404C 117.527 408.299 120.691 405.279 121 407C 121.373 413.96 120.078 422.588 122 428C 119.818 428.638 118.818 425.166 119 429L119 429L119 431C 118.694 434.125 121.889 428.458 122 432C 121.83 433.496 122.357 435.69 121 436C 120.905 434.429 121.134 432.532 119 433L119 433L119 439C 120.72 439.395 121.563 437.516 122 439C 122.197 449.673 122.412 455.606 123 462C 121.536 464.32 119.831 460.047 120 464C 121.352 466.427 121.999 464.623 123 466C 122.174 475.898 125.895996 487.532 121 489C 125.654 491.087 124.735 512.009 123 517C 123.893 517.203 124.827 517.054 125 518C 126.661 527.078 124.464 539.95703 126 550C 131.615 551.385 137.802 552.198 142 555C 144.347 549.876 140.118 553.381 140 550C 139.704 547.37 143.88 549.213 143 546C 142.056 544.277 139.304 544.363 140 541C 141.257 541.22 142.044 542.558 142 540C 141.761 538.125 140.354 540.567 140 539C 138.552 535.219 142.748 537.081 142 534C 142.745 530.922 139.255 532.078 140 529C 145.952 522.646 134.382 515.36 141 507C 139.303 506.03 138.431 504.236 139 501C 140.257 501.22 141.044 502.558 141 500C 137.487 498.185 140.012 496.555 141 494C 139.28 493.605 138.437 495.484 138 494C 135.821 487.559 142.787 473.656 138 480L138 480L138 474C 139.003 473.997 139.19 474.81 140 475C 140.571 470.049 139.578 461.208 137 468C 134.879 460.19 140.617 454.98 138 450C 137.453 451.453 139.168 455.169 137 455L137 455L137 448C 138.257 448.22 139.044 449.558 139 447C 134.572 444.138 142.21 440.744 137 438C 136.83 439.496 137.357 441.69 136 442C 133.661 435.796 140.546 423.856 136 428C 136.036 424.52 135.439 418.486 138 423C 137.189 415.438 140.169 409.27 137 406C 136.515 407.182 135.934 408.267 135 409C 136.311 404.632 132.779 399.965 135 398C 137.715 397.284 134.285 402.716 137 402C 136.199 398.569 139.234 383.27 135 380C 134.373 383.039 136.28 388.613 134 390C 133.359 378.161 139.685 363.289 134 353C 133.346 359.013 135.317 367.65 133 372C 131.52 355.27 137.49 342.96 133 333zM262 218C 260.188 218.22 255.48 224.123 251 225C 246.225 232.558 250.016 248.683 246 257C 248.646 262.876 247.452 268.574 247 275C 245.404 297.682 247.861 328.201 245 351C 244.635 353.912 243.085 356.955 243 360C 242.912 363.146 244.734 364.707 245 368C 245.598 375.397 242.448 383.765 244 391C 243.987 393.806 241.271 388.619 242 393C 243.41 399.505 243.452 406.177 243 412C 242.459 418.973 245.19 431.034 241 433C 242.314 436.709 242.893 450.646 242 458C 241.811 459.56 242.205 461.476 240 461C 244.037 480.395 238.868 506.94 240 530C 239.987 532.806 237.271 527.619 238 532C 237.039 543.864 240.811 548.317 239 559C 244.552 558.885 248.204 556.87 254 557C 254.751 552.401 248.443 551.942 253 549C 253.17 550.496 252.643 552.69 254 553C 254.263 543.778 253.107 531.812 255 528C 259.562 518.814 253.152 505.019 257 493C 257.396 490.604 252.445 493.555 254 490C 254.387 484.129 254.777 483.443 257 481C 258.898 444.954 261.652 394.99 263 352C 263.748 348.919 259.553 350.781 261 347C 262.001 345.623 262.648 347.427 264 345C 264.613 310.338 267.479 283.743 268 252C 268.748 248.919 264.553 250.781 266 247C 271.082 246.746 267.523 231.537 269 228C 264.3 228.95 268.18 217.5 262 218zM144 265C 144.585 281.661 143.65 292.974 142 304C 143.165 304.168 143.086 305.581 143 307L143 307L143 312C 142.776 313.7 144.127 314.475 144 312C 144.619 309.286 142.73 304.063 145 303C 142.465 313.73 150.13 345.604 146 350C 145.386 350.653 144.544 347.737 144 348C 143.253 357.409 144.544 367.20898 145 377C 145.459 386.881 143.001 398.002 147 406C 147.627 402.961 145.72 397.387 148 396C 148.414 403.586 147.019 412.98 149 419C 147.536 421.32 145.831 417.047 146 421C 146.467 425.677 147.958 431.448 146 437C 148.236 437.431 146.405 441.929 147 444C 146.957 445.063 147.471 446.539 148 445L148 445L148 441C 148.65 435.983 146.689 428.356 149 425C 147.518 434.648 151.979 453.432 147 454C 151.218 457.856 144.8 464.181 150 465L150 465L150 492C 148.997 492.003 148.81 491.19 148 491C 154.048 498.948 147.75 505.607 150 513C 150.575 511.242 148.792 507.125 151 507C 150.611 528.874 150.677 536.917 153 558C 161.235 557.099 165.241 560.426 171 562C 167.52 559.377 173.029 550.409 168 555C 165.455 548.756 174.206 546.685 169 544C 168.843 545.177 169.172 546.839 168 547C 168.243 543.614 167.026 534.865 170 540C 168.384 535.26 166.014 526.863 169 520C 169.224 520.775 169.027 521.973 170 522C 165.787 512.88 167.169 498.164 167 485C 169.251 488.562 170.084 481.335 168 481C 163.753 485.607 170.222 472.448 168 472C 165.447 477.369 166.577 465.298 170 465C 167.721 463.627 166.241 467.578 166 465C 166.761 455.876 164.142 439.914 168 437C 165.882 438.032 164.842 431.607 166 429C 166.125 428.717 168.9 430.938 168 428C 164.889 422.298 168.132 415.94 168 408C 166.28 407.605 165.437 409.484 165 408C 164.571 398.42 162.512 385.16602 165 376C 165.311 379.023 163.89 383.777 167 384L167 384L167 371C 165.034 370.701 165.017 372.351 164 373C 162.169 366.376 165.796 358.388 166 356C 166.356 351.818 165.013 348.202 165 344C 164.982 338.457 168.797 331.432 164 327C 163.367 330.367 165.289 336.288 163 338C 163.667 323.726 161.399 306.80402 165 298C 162.263 294.458 160.123 285.176 164 281C 159.599 278.038 161.704 270.565 164 267C 164.505 260.472 163.208 252.766 164 249C 155.967 239.898 169.869 219.562 153 218C 152.251 222.918 144.099 220.433 143 225C 142.337 236.004 144.328 249.661 142 259C 142.003 258.445 141.19 257.865 141 259C 142.96 261.1 141.32 266.09 144 265zM233 222C 227.109 223.895 230.205 220.791 227 220C 225.062 222.729 221.888 224.221 218 225C 216.834 226.833 215.386 228.386 214 230C 215.366 235.904 210.128 229.688 211 234C 209.984 302.005 208.65 365.78 210 422C 212.507 401.296 209.344 366.832 212 343C 212.625 375.385 211.436 424.275 212 451C 210.536 453.32 208.831 449.047 209 453C 209.619 455.714 207.73 460.937 210 462C 210.575 460.242 208.792 456.125 211 456C 209.83 477.188 213.479 511.794 209 533C 214.058 538.941 208.537 555.463 212 563C 215.035 560.035 224.965 563.965 228 561C 226.627 517.406 230.474 461.28 230 415C 232.72 414.387 231.431 409.764 233 408C 230.77 408.182 231.235 406.938 231 405C 229.46 392.31 231.374 371.425 232 359C 232.038 370.609 235.464 349.828 234 344C 233.442 341.779 230.668 339.664 232 336C 233.371 332.229 233.414 336.535 232 333C 229.324 326.311 233.254 300.029 234 311C 234.889 294.325 232.484 280.721 234 268C 234.609 270.391 232.744 275.255 235 276C 236.371 268.016 236.301 240.14 235 233C 234.479 235.857 233.521 231.386 233 231C 233.261 229.444 235.193 230.307 236 231C 235.67 227.33 232.04 226.96 233 222zM174 260C 174 270.748 173.277 281.393 174 289C 174.75 296.885 175.825 309.203 173 314C 174.685 314.044 174.761 314.389 175 316C 177.146 330.476 175 354.264 175 369C 175 374.916 173.35 382.673 177 385C 177.65 379.983 175.689 372.356 178 369C 177.645 389.978 178.896 412.562 177 432C 176.255 435.078 179.745 433.922 179 437C 177.111 437.749 178.306 439.984 176 438C 178.083 441.153 175.492 451.219 179 450C 179.568 473.766 177.802 499.865 180 522C 179.91 523.576 177.449 522.782 178 525C 182.637 533.154 175.302 536.811 178 544C 178.239 542.914 179.646 541.599 180 543C 179.886 551.017 179.376 553.471 180 561C 187.094 560.239 191.425 562.242 198 562C 199.171 554.583 199.003 551.064 197 550C 198.918 539.544 200.142 520.748 199 506C 198.866 504.27 197.541 506.351 197 505C 195.948 502.371 197.006 496.579 198 496C 198.224 496.776 198.027 497.973 199 498C 198.281 493.187 199.978 486.374 199 483C 198.539 481.409 195.727 484.007 197 481C 199.704 472.21 199.576 463.469 197 454C 200.634 451.093 199.66 445.129 199 438C 202.05 437.05 200.774 431.774 201 428C 198.721 426.627 197.241 430.578 197 428C 200.342 413.117 195.6 412.327 198 398C 196.854 401.146 199.57 400.43 200 402L200 402L200 409C 199.275 412.616 201.725 412.616 201 409L201 409L201 394C 198.116 392.685 199.571 387.035 197 388C 195.471 379.138 199.631 375.964 199 368C 198.761 366.125 197.354 368.567 197 367C 195.552 357.552 199.226 353.226 199 345C 198.761 343.125 197.354 345.567 197 344C 200.611 325.29102 196.779 325.039 197 305C 198.003 304.997 198.19 305.81 199 306C 195.891 302.577 200.07 303.227 199 297C 193.724 295.256 199.075 283.327 199 284C 198.985 284.134 196.311 283.551 197 283C 200.102 280.519 197.581 278.005 199 272C 193.764 263.357 199.208 250.132 196 240C 198.652 240.319 195.064 234.398 199 236C 193.455 230.687 201.864 223.889 192 221C 191.262 224.172 186.282 222.389 183 224C 180.357 225.297 179.466 228.202 177 229C 175.005 233.535 179.236 238.394 175 241C 172.843 232.491 178.271 226.296 179 224C 171.25 229.77 174 243.03 174 260zM198 250C 200.292 250.375 199.333 254 201 255C 200.54 251.421 202.047 240.671 200 242C 201 246.33 198.88 247.55 198 250zM202 274C 200.315 269.996 202.031 257.333 200 257C 201.17 262.17 197.56 272.11 202 274zM201 298C 201.562 297.032 201.522 281.332 200 280C 200.65 285.68 198.68 293.98 201 298zM201 322C 201.006 317.884 201.875 302.572 200 301C 200.66 307.68 198.68 316.99 201 322zM201 366C 200.46 360.852 202.16 348.203 200 348C 200.54 353.15 198.84 365.8 201 366zM201 389C 200.449 383.53 202.174 370.52 200 370C 200.55 375.47 198.83 388.48 201 389zM210 478C 209.353 473.314 211.308 466.025 209 463C 209.06 467.25 205.63 475.76 210 478zM265 496C 264.91 500.643 263.626 507.479 266 508C 264.769 499.088 268.012 489.363 266 483C 264.31 485.7 265.1 490.82 265 496zM86 543C 86.205 538.795 86.36 534.64 83 534C 82.795 538.2 82.64 542.36 86 543zM315 546C 319.098 546.388 318.746 537.137 317 535C 314.4 536.74 314.97 541.64 315 546zM92 547C 92.034 542.633 91.131 539.202 90 536L90 536L87 536C 88.911 539.42 86.276 547.39 92 547zM310 549C 313.981 548.614 313.783 538.828 312 536C 309.01 538.01 310.21 544.21 310 549zM125 566C 159.092 581.097 213.47101 584.997 255 574C 257.673 573.006 253.674 565.341 258 566C 258.022 568.355 256.277 568.944 257 572C 261.857 571.857 265.423 570.423 269 569C 270.755 565.422 268.845 558.178 271 555L271 555L271 567C 273.153 568.653 277.154 565.75 280 565L280 565L280 554C 269.911 550.638 262.278 557.325 256 561C 247.568 555.906 240.028 563.988 232 565C 227.41699 565.577 221.354 563.521 216 564C 210.612 564.481 206.093 567.227 202 567C 195.316 566.63 189.92 562.283 183 563C 179.2 563.394 177.689 565.718 173 566C 165.742 561.919 156.379 558.068 145 561C 139.855 555.873 130.275 550.764 120 554C 116.411 552.412 113.718 546.523 109 545C 105.069 543.73 102.332 545.191 99 545C 97.379 542.287 95.968 539.365 93 538L93 538L93 548C 99.109 550.891 102.982 556.018 110 558C 110.575 556.242 108.792 552.125 111 552C 110.99 554.656 111.378 557.711 110 559C 116.020996 559.979 118.223 564.776 125 565C 125.347 562.241 122.129 557.978 125 556C 124.55 559.8 127.59 563.12 125 566zM305 553C 307.423 551.056 309.307 543.353 307 540C 305.34 542.71 302.02 548.97 305 553zM297 556C 302.007 556.007 301.733 550.733 302 546C 300.722 545.945 300.615 544.718 299 545C 297.76 548.09 297.44 552.11 297 556zM291 560C 296.06 558.727 296.16 552.493 296 546C 288.4 544.09 289.04 555.68 291 560zM281 564C 284.073 563.739 285.497 561.83 288 561C 286.792 555.001 291.196 551.474 287 549C 281.88 553.08 280.24 554.48 281 564z" stroke="none" fill="#000000" fill-rule="nonzero" />
        <path d="M69 194C 66.155 191.922 66.153 186.655 66 184C 65.781 180.196 66.957 176.526 66 168C 65.873 165.526 67.224 166.3 67 168C 67.855 176.55 67.643 184.2 69 194z" stroke="none" fill="#000000" fill-rule="nonzero" />
        <path d="M323 408C 326.572 408.752 323.51 415.236 323 418C 321.92 421.92 325.315 430.315 321 431C 322.27 423.93 322.72 416.05 323 408z" stroke="none" fill="#000000" fill-rule="nonzero" />
        <path d="M318 468C 320.5 469.173 319.326 475.661 319 480C 318.637 484.83 318.777 491.422 316 493C 317.35 483.3 318.18 479.23 318 468z" stroke="none" fill="#000000" fill-rule="nonzero" />
        <path d="M234 22C 233.533 30.467 235.777 36.222 235 45C 214.871 43.129 193.182 42.818 171 43C 171.194 34.861 171.569 26.902 173 20C 192.27 21.73 215.09 19.906 234 22zM179 23C 178.34 26.485 177.854 28.812 178 35C 195.885 38.024 213.556 37.165 232 38C 234.492 34.268 232.12 28.293 232 24C 213.45999 24.535 197.77 22.234 179 23zM193 38C 193.169 39.352 187.915 39.999 191 41C 197.384 40.8 220.806 43.919 233 41C 222.15 37.514 205.73 39.601 193 38z" stroke="none" fill="#000000" fill-rule="nonzero" />
	</g>
</g>
</svg>